<svg>
    <symbol id="check-arrow" viewBox="0 0 16 9" xmlns="http://www.w3.org/2000/svg">
        <path d="M0.46967 7.46967C0.176777 7.76256 0.176777 8.23744 0.46967 8.53033C0.762563 8.82322 1.23744 8.82322 1.53033 8.53033L0.46967 7.46967ZM8 1L8.53033 0.469669C8.23744 0.176776 7.76256 0.176776 7.46967 0.469669L8 1ZM14.4697 8.53033C14.7626 8.82322 15.2374 8.82322 15.5303 8.53033C15.8232 8.23744 15.8232 7.76256 15.5303 7.46967L14.4697 8.53033ZM1.53033 8.53033L8.53033 1.53033L7.46967 0.469669L0.46967 7.46967L1.53033 8.53033ZM7.46967 1.53033L14.4697 8.53033L15.5303 7.46967L8.53033 0.469669L7.46967 1.53033Z"
        />
    </symbol>

    <symbol id="cross" viewBox="0 0 140 139" xmlns="http://www.w3.org/2000/svg">
        <path d="M109.713 0.438084L70.3117 39.8395L30.7573 0.285156L0.900391 30.1421L40.4548 69.6965L1.06231 109.08L30.9192 138.937L70.3117 99.5534L109.551 138.793L139.408 108.936L100.169 69.6965L139.57 30.295L109.713 0.438084Z"
              fill="#2DAB49"/>
    </symbol>

    <symbol id='arrow-for-button' viewBox="0 0 16 16" xmlns="http://www.w3.org/2000/svg">
        <path d="M15.7071 8.70711C16.0976 8.31658 16.0976 7.68342 15.7071 7.29289L9.34315 0.928933C8.95262 0.538409 8.31946 0.538409 7.92893 0.928933C7.53841 1.31946 7.53841 1.95262 7.92893 2.34315L13.5858 8L7.92893 13.6569C7.53841 14.0474 7.53841 14.6805 7.92893 15.0711C8.31946 15.4616 8.95262 15.4616 9.34314 15.0711L15.7071 8.70711ZM-8.74228e-08 9L15 9L15 7L8.74228e-08 7L-8.74228e-08 9Z"
        />
    </symbol>

    <symbol id='galka' width="27" height="19" viewBox="0 0 27 19" xmlns="http://www.w3.org/2000/svg">
        <path d="M2.16705 9.46967C1.77652 9.07915 1.14336 9.07915 0.752835 9.46967C0.362312 9.8602 0.362311 10.4934 0.752835 10.8839L2.16705 9.46967ZM8.95895 17.6758L8.25184 18.3829C8.64236 18.7734 9.27553 18.7734 9.66605 18.3829L8.95895 17.6758ZM26.167 1.88189C26.5576 1.49137 26.5576 0.858206 26.167 0.467681C25.7765 0.0771562 25.1434 0.0771565 24.7528 0.467681L26.167 1.88189ZM0.752835 10.8839L8.25184 18.3829L9.66605 16.9687L2.16705 9.46967L0.752835 10.8839ZM9.66605 18.3829L26.167 1.88189L24.7528 0.467681L8.25184 16.9687L9.66605 18.3829Z"
        />
    </symbol>

    <symbol id='checkbox-galka' viewBox="0 0 12 9" xmlns="http://www.w3.org/2000/svg">
        <path d="M2.37958 3.73467C1.98906 3.34415 1.3559 3.34415 0.965371 3.73467C0.574848 4.1252 0.574847 4.75836 0.965371 5.14889L2.37958 3.73467ZM4.4846 7.25391L3.7775 7.96101C4.16802 8.35154 4.80119 8.35154 5.19171 7.96101L4.4846 7.25391ZM11.3796 1.77314C11.7701 1.38262 11.7701 0.749451 11.3796 0.358927C10.9891 -0.0315976 10.3559 -0.0315976 9.96537 0.358927L11.3796 1.77314ZM0.965371 5.14889L3.7775 7.96101L5.19171 6.5468L2.37958 3.73467L0.965371 5.14889ZM5.19171 7.96101L11.3796 1.77314L9.96537 0.358927L3.7775 6.5468L5.19171 7.96101Z"/>
    </symbol>

    <symbol id='plus-small' viewBox="0 0 10 10" xmlns="http://www.w3.org/2000/svg">
        <path d="M0 5L10 5" stroke-width="2"/>
        <path d="M5 10L5 -4.76837e-07" stroke-width="2"/>
    </symbol>

    <symbol id="logo" viewBox="0 0 53 19" xmlns="http://www.w3.org/2000/svg">
        <path d="M22.1942 2.46141L18.0202 6.60872L13.8299 2.44531L10.667 5.58799L14.8572 9.7514L10.6841 13.8968L13.8471 17.0395L18.0202 12.8941L22.1771 17.0244L25.34 13.8817L21.1831 9.7514L25.3572 5.60409L22.1942 2.46141Z"/>
        <path d="M0 4.8026H2.35195V18.5067H7.68292V4.8026H10.0225V0.46875H0V4.8026Z"/>
        <path d="M32.8512 0.46875H26.6816V18.5067H32.8627C34.8839 18.5067 36.4554 17.9784 37.579 16.9217C38.7025 15.8649 39.2572 14.3149 39.2572 12.2592V6.71623C39.2572 4.66151 38.6901 3.11053 37.5666 2.05382C36.443 0.997107 34.8715 0.46875 32.8512 0.46875ZM33.9386 12.4941C33.9386 13.6095 33.5726 14.1738 32.8512 14.1738H32.0002V4.8026H32.8512C33.5726 4.8026 33.9386 5.36599 33.9386 6.48236V12.4941Z"/>
        <path d="M46.4531 8.52567V12.3776H47.67V12.9769C47.67 14.0923 47.3041 14.6567 46.5827 14.6567C45.8613 14.6567 45.4953 14.0933 45.4953 12.9769V6.0013C45.4953 4.88588 45.8613 4.32154 46.5827 4.32154C47.3041 4.32154 47.67 4.88493 47.67 6.0013V7.32787H52.9886V6.24748C52.9886 4.19276 52.4216 2.64178 51.298 1.58507C50.1745 0.528356 48.604 0 46.5827 0C44.5614 0 42.99 0.528356 41.8664 1.58507C40.7428 2.64178 40.1768 4.20413 40.1768 6.25885V12.7412C40.1768 14.7959 40.638 16.3582 41.5481 17.4149C42.4582 18.4716 43.7342 19 45.3772 19C47.3041 19 48.7221 18.2832 49.6198 16.8629V18.519H53V8.53797L46.4531 8.52567Z"/>
    </symbol>

    <symbol id="close-modal" viewBox="0 0 26 26" fill="none" xmlns="http://www.w3.org/2000/svg">
        <path d="M1 1L24.9995 24.9995" stroke="#404040" stroke-width="2"/>
        <path d="M25 1L1.00049 24.9995" stroke="#404040" stroke-width="2"/>
    </symbol>

    <symbol id='vk' viewBox="0 0 29 18" xmlns="http://www.w3.org/2000/svg">
        <path d="M15.9034 17.3923C16.6393 17.3923 16.9401 16.8877 16.9317 16.2551C16.8942 13.8726 17.7944 12.59 19.4195 14.2616C21.2175 16.1109 21.5896 17.3923 23.773 17.3923H27.6395C28.6158 17.3923 29 17.0692 29 16.5621C29 15.4895 27.283 13.5967 25.8283 12.2072C23.7911 10.2621 23.6956 10.2162 25.4501 7.87464C27.6262 4.96764 30.4729 1.24284 27.9548 1.24284H23.1447C22.2119 1.24284 22.1442 1.78348 21.8119 2.58884C20.6097 5.50578 18.3248 9.28402 17.4573 8.7061C16.5499 8.10332 16.9655 5.71583 17.0344 2.16751C17.0525 1.23041 17.0477 0.587864 15.6557 0.254782C14.8957 0.0745704 14.1562 0 13.4699 0C10.7235 0 8.82892 1.18443 9.9055 1.39074C11.8037 1.75489 11.6213 5.97931 11.179 7.8038C10.4081 10.9805 7.51069 5.28829 6.30361 2.45337C6.01242 1.77229 5.923 1.24284 4.88388 1.24284H0.950919C0.356443 1.24284 0 1.4417 0 1.88415C0 2.63234 3.57652 10.236 6.99113 14.0267C10.3212 17.7242 13.6125 17.3923 15.9034 17.3923Z"/>
    </symbol>

    <symbol id="tg" viewBox="0 0 25 22" xmlns="http://www.w3.org/2000/svg">
        <path fill-rule="evenodd" clip-rule="evenodd"
              d="M18.7037 21.3615C19.0313 21.6077 19.4535 21.6693 19.8299 21.5181C20.2064 21.3658 20.4831 21.0245 20.5665 20.6109C21.4506 16.2002 23.5952 5.03621 24.3999 1.024C24.461 0.721601 24.3592 0.407321 24.1354 0.20536C23.9116 0.00340015 23.6013 -0.05492 23.3246 0.0541601C19.0588 1.73032 5.92149 6.96293 0.551818 9.07217C0.211 9.20609 -0.0107863 9.55385 0.000404764 9.93509C0.0126132 10.3174 0.254747 10.649 0.603704 10.7602C3.01181 11.5249 6.17278 12.5887 6.17278 12.5887C6.17278 12.5887 7.64999 17.3245 8.42014 19.7329C8.51679 20.0353 8.7396 20.2729 9.03361 20.3549C9.32662 20.4359 9.63997 20.3506 9.8587 20.1314C11.0958 18.8915 13.0085 16.9745 13.0085 16.9745C13.0085 16.9745 16.6425 19.8031 18.7037 21.3615ZM7.50248 11.9903L9.21064 17.9714L9.59011 14.1838C9.59011 14.1838 16.1898 7.86473 19.952 4.26293C20.0619 4.15708 20.0771 3.97996 19.9856 3.85576C19.895 3.73156 19.7282 3.7024 19.6031 3.78664C15.2426 6.74261 7.50248 11.9903 7.50248 11.9903Z"/>
    </symbol>

    <symbol id="ig" viewBox="0 0 22 22"  xmlns="http://www.w3.org/2000/svg">
        <path fill-rule="evenodd" clip-rule="evenodd" d="M2.74018 0C1.22682 0 0 1.22682 0 2.74018V19.2598C0 20.7732 1.22682 22 2.74018 22H19.2598C20.7732 22 22 20.7732 22 19.2598V2.74018C22 1.22682 20.7732 0 19.2598 0H2.74018ZM19 4.5C19 5.32843 18.3284 6 17.5 6C16.6716 6 16 5.32843 16 4.5C16 3.67157 16.6716 3 17.5 3C18.3284 3 19 3.67157 19 4.5ZM17 12C17 15.3137 14.3137 18 11 18C7.68629 18 5 15.3137 5 12C5 8.68629 7.68629 6 11 6C14.3137 6 17 8.68629 17 12Z"/>
        <circle cx="11" cy="12" r="4"/>
    </symbol>

    <symbol id="chain" viewBox="0 0 31 30" xmlns="http://www.w3.org/2000/svg">
        <path d="M17.9866 12.5035L16.4872 11.0041C15.3157 9.83256 13.4162 9.83256 12.2446 11.0041L2.52171 20.727C1.35014 21.8986 1.35014 23.7981 2.52171 24.9696L5.00321 27.4511C6.17478 28.6227 8.07428 28.6227 9.24585 27.4511L12.8142 23.8828"
              stroke-width="3" stroke-linecap="round" stroke-linejoin="round"/>
        <path d="M12.8142 17.6723L14.3136 19.1716C15.4851 20.3432 17.3846 20.3432 18.5562 19.1716L28.2791 9.44877C29.4506 8.2772 29.4506 6.3777 28.2791 5.20613L25.7976 2.72463C24.626 1.55306 22.7265 1.55306 21.5549 2.72463L17.9866 6.29297"
              stroke-width="3" stroke-linecap="round" stroke-linejoin="round"/>
    </symbol>

<!--    <symbol id="back" viewBox="0 0 16 16" xmlns="http://www.w3.org/2000/svg">-->
<!--        <path d="M0.292893 8.70711C-0.0976314 8.31658 -0.0976315 7.68342 0.292893 7.29289L6.65685 0.928933C7.04738 0.538409 7.68054 0.538409 8.07107 0.928933C8.46159 1.31946 8.46159 1.95262 8.07107 2.34315L2.41421 8L8.07107 13.6569C8.46159 14.0474 8.46159 14.6805 8.07107 15.0711C7.68054 15.4616 7.04738 15.4616 6.65686 15.0711L0.292893 8.70711ZM16 9L1 9L1 7L16 7L16 9Z"/>-->
<!--    </symbol>-->

    <symbol id="author" viewBox="0 0 16 15" fill="none" xmlns="http://www.w3.org/2000/svg">
        <circle cx="8" cy="5" r="4" stroke="#404040" stroke-width="2"/>
        <mask id="path-2-inside-1_354_1714" fill="white">
            <path fill-rule="evenodd" clip-rule="evenodd"
                  d="M15.9387 15H0.0625C0.554598 11.0537 3.92099 8 8.00061 8C12.0802 8 15.4466 11.0537 15.9387 15Z"/>
        </mask>
        <path d="M0.0625 15L-1.92213 14.7525L-2.20239 17H0.0625V15ZM15.9387 15V17H18.2036L17.9233 14.7525L15.9387 15ZM0.0625 17H15.9387V13H0.0625V17ZM2.04713 15.2475C2.41595 12.2898 4.9424 10 8.00061 10V6C2.89957 6 -1.30675 9.81758 -1.92213 14.7525L2.04713 15.2475ZM8.00061 10C11.0588 10 13.5853 12.2898 13.9541 15.2475L17.9233 14.7525C17.308 9.81758 13.1016 6 8.00061 6V10Z"
              fill="#404040" mask="url(#path-2-inside-1_354_1714)"/>
    </symbol>

    <symbol id="two-checks" viewBox="0 0 21 10" xmlns="http://www.w3.org/2000/svg">
        <path d="M1 5.61538L4.38462 9L13 1" stroke-width="2" stroke-linecap="round" stroke-linejoin="round"/>
        <path d="M10 7.61538L11.384 9L19.9994 1" stroke-width="2" stroke-linecap="round" stroke-linejoin="round"/>
    </symbol>
    <symbol id="watch" viewBox="0 0 16 17" xmlns="http://www.w3.org/2000/svg">
        <circle cx="8" cy="8" r="7" stroke-width="2"/>
        <path d="M7.48633 4.57812V8.08125L9.98633 10.5813" stroke-width="2" stroke-linecap="round"/>
    </symbol>




</svg>
