<svg>
    <symbol id="check-arrow" viewBox="0 0 16 9" xmlns="http://www.w3.org/2000/svg">
        <path d="M0.46967 7.46967C0.176777 7.76256 0.176777 8.23744 0.46967 8.53033C0.762563 8.82322 1.23744 8.82322 1.53033 8.53033L0.46967 7.46967ZM8 1L8.53033 0.469669C8.23744 0.176776 7.76256 0.176776 7.46967 0.469669L8 1ZM14.4697 8.53033C14.7626 8.82322 15.2374 8.82322 15.5303 8.53033C15.8232 8.23744 15.8232 7.76256 15.5303 7.46967L14.4697 8.53033ZM1.53033 8.53033L8.53033 1.53033L7.46967 0.469669L0.46967 7.46967L1.53033 8.53033ZM7.46967 1.53033L14.4697 8.53033L15.5303 7.46967L8.53033 0.469669L7.46967 1.53033Z"
        />
    </symbol>


    <symbol id="cross" viewBox="0 0 140 139" xmlns="http://www.w3.org/2000/svg">
        <path d="M109.713 0.438084L70.3117 39.8395L30.7573 0.285156L0.900391 30.1421L40.4548 69.6965L1.06231 109.08L30.9192 138.937L70.3117 99.5534L109.551 138.793L139.408 108.936L100.169 69.6965L139.57 30.295L109.713 0.438084Z"
              fill="#2DAB49"/>
    </symbol>

    <symbol id='arrow-for-button' viewBox="0 0 16 16" xmlns="http://www.w3.org/2000/svg">
        <path d="M15.7071 8.70711C16.0976 8.31658 16.0976 7.68342 15.7071 7.29289L9.34315 0.928933C8.95262 0.538409 8.31946 0.538409 7.92893 0.928933C7.53841 1.31946 7.53841 1.95262 7.92893 2.34315L13.5858 8L7.92893 13.6569C7.53841 14.0474 7.53841 14.6805 7.92893 15.0711C8.31946 15.4616 8.95262 15.4616 9.34314 15.0711L15.7071 8.70711ZM-8.74228e-08 9L15 9L15 7L8.74228e-08 7L-8.74228e-08 9Z"
        />
    </symbol>


    <symbol id='arrow-for-button' width="27" height="19" viewBox="0 0 27 19" fill="none"
            xmlns="http://www.w3.org/2000/svg">
        <path d="M2.16705 9.46967C1.77652 9.07915 1.14336 9.07915 0.752835 9.46967C0.362312 9.8602 0.362311 10.4934 0.752835 10.8839L2.16705 9.46967ZM8.95895 17.6758L8.25184 18.3829C8.64236 18.7734 9.27553 18.7734 9.66605 18.3829L8.95895 17.6758ZM26.167 1.88189C26.5576 1.49137 26.5576 0.858206 26.167 0.467681C25.7765 0.0771562 25.1434 0.0771565 24.7528 0.467681L26.167 1.88189ZM0.752835 10.8839L8.25184 18.3829L9.66605 16.9687L2.16705 9.46967L0.752835 10.8839ZM9.66605 18.3829L26.167 1.88189L24.7528 0.467681L8.25184 16.9687L9.66605 18.3829Z"
              fill="#F8F8F4"/>
    </symbol>


</svg>
